<?xml version="1.0" encoding="UTF-8" standalone="no"?>
<!DOCTYPE svg PUBLIC "-//W3C//DTD SVG 1.1//EN"
 "http://www.w3.org/Graphics/SVG/1.1/DTD/svg11.dtd">
<!-- Generated by graphviz version 2.40.1 (0)
 -->
<!-- Title: G Pages: 1 -->
<svg width="307pt" height="44pt"
 viewBox="0.00 0.00 306.88 44.00" xmlns="http://www.w3.org/2000/svg" xmlns:xlink="http://www.w3.org/1999/xlink">
<g id="graph0" class="graph" transform="scale(1 1) rotate(0) translate(4 40)">
<title>G</title>
<polygon fill="#ffffff" stroke="transparent" points="-4,4 -4,-40 302.8847,-40 302.8847,4 -4,4"/>
<!-- graph -->
<g id="node1" class="node">
<title>graph</title>
<ellipse fill="none" stroke="#000000" cx="38.3466" cy="-18" rx="38.1938" ry="18"/>
<text text-anchor="middle" x="38.3466" y="-14.3" font-family="Times,serif" font-size="14.00" fill="#000000">graph</text>
</g>
<!-- tag -->
<g id="node2" class="node">
<title>tag</title>
<ellipse fill="none" stroke="#000000" cx="139.6932" cy="-18" rx="27" ry="18"/>
<text text-anchor="middle" x="139.6932" y="-14.3" font-family="Times,serif" font-size="14.00" fill="#000000">tag</text>
</g>
<!-- graph&#45;&gt;tag -->
<g id="edge1" class="edge">
<title>graph&#45;&gt;tag</title>
<path fill="none" stroke="#000000" d="M76.9505,-18C85.2888,-18 94.0901,-18 102.378,-18"/>
<polygon fill="#000000" stroke="#000000" points="102.528,-21.5001 112.5279,-18 102.5279,-14.5001 102.528,-21.5001"/>
</g>
<!-- reactive -->
<g id="node3" class="node">
<title>reactive</title>
<ellipse fill="none" stroke="#000000" cx="250.7889" cy="-18" rx="48.1917" ry="18"/>
<text text-anchor="middle" x="250.7889" y="-14.3" font-family="Times,serif" font-size="14.00" fill="#000000">reactive</text>
</g>
<!-- tag&#45;&gt;reactive -->
<g id="edge2" class="edge">
<title>tag&#45;&gt;reactive</title>
<path fill="none" stroke="#000000" d="M166.8703,-18C174.7113,-18 183.5833,-18 192.549,-18"/>
<polygon fill="#000000" stroke="#000000" points="192.6615,-21.5001 202.6615,-18 192.6614,-14.5001 192.6615,-21.5001"/>
</g>
</g>
</svg>
